<?xml version="1.0" encoding="UTF-8"?>
<svg xmlns="http://www.w3.org/2000/svg" viewBox="0 0 295.229 104.119">
  <defs>
    <style>
      .cls-1, .cls-2 {
        fill: #231f20;
      }

      .cls-2 {
        stroke: #231f20;
        stroke-width: .531px;
      }

      .cls-2, .cls-3, .cls-4, .cls-5, .cls-6, .cls-7, .cls-8, .cls-9 {
        stroke-miterlimit: 10;
      }

      .cls-3 {
        stroke-width: 1.004px;
      }

      .cls-3, .cls-4, .cls-5, .cls-6, .cls-7, .cls-8, .cls-9 {
        stroke: #fff;
      }

      .cls-3, .cls-6 {
        fill: #4f6355;
      }

      .cls-4 {
        stroke-width: .449px;
      }

      .cls-4, .cls-5, .cls-7 {
        fill: #cdd8cd;
      }

      .cls-5 {
        stroke-width: .444px;
      }

      .cls-6, .cls-8 {
        stroke-width: 1.681px;
      }

      .cls-7 {
        stroke-width: .438px;
      }

      .cls-8, .cls-9 {
        fill: #c2d0c3;
      }

      .cls-9 {
        stroke-width: .72px;
      }
    </style>
  </defs>
  <g id="Layer_1" data-name="Layer 1"/>
  <g id="Layer_2" data-name="Layer 2">
    <g id="Layer_1-2" data-name="Layer 1">
      <g>
        <polygon class="cls-5" points="45.691 86.606 9.125 78.856 .585 86.362 45.691 86.606"/>
        <polyline class="cls-3" points="56.049 86.719 104.052 86.719 141.536 49.234 93.534 49.234 56.049 86.719"/>
        <polygon class="cls-9" points="62.851 83.875 67.717 83.875 100.915 50.677 95.891 50.703 62.851 83.875"/>
        <polygon class="cls-9" points="70.929 83.956 75.794 83.956 108.992 50.758 103.969 50.784 70.929 83.956"/>
        <polygon class="cls-9" points="79.482 83.956 84.347 83.956 117.545 50.758 112.522 50.784 79.482 83.956"/>
        <polygon class="cls-9" points="124.204 63.09 110.904 63.042 100.44 73.431 113.741 73.479 124.204 63.09"/>
        <polygon class="cls-4" points="45.702 86.071 14.737 66.384 2.967 74.298 45.702 86.071"/>
        <polygon class="cls-5" points="38.986 75.187 20.409 46.88 8.891 56.569 46.057 84.824 38.986 75.187"/>
        <polygon class="cls-7" points="88.543 51.889 73.455 4.058 22.755 42.152 47.942 86.613 88.543 51.889"/>
        <polygon class="cls-6" points="94.459 47.95 94.191 .759 94.356 .594 53.05 41.9 53.318 89.091 94.459 47.95"/>
        <polygon class="cls-8" points="90.568 46.857 91.152 9.198 91.148 8.834 57.405 42.578 56.96 80.465 90.568 46.857"/>
      </g>
      <g>
        <path class="cls-1" d="M170.541,70.323l.49-.544-.349,1.938h-.61l.087-1.938h5.949l.087,1.938h-.61l-.349-1.938,.49,.544h-5.186Zm2.702,6.156l1.524,.163v.436h-3.268v-.436l1.524-.163h.219Zm-.6-3.323c0-1.122,0-2.255-.032-3.377h1.046c-.033,1.1-.033,2.233-.033,3.377v.545c0,1.122,0,2.255,.033,3.377h-1.046c.032-1.101,.032-2.233,.032-3.377v-.545Z"/>
        <path class="cls-1" d="M176.9,70.215v-.436h1.525v.599h-.109l-1.416-.163Zm1.525,6.265v.599h-1.525v-.436l1.416-.163h.109Zm-.49-3.323c0-1.122,0-2.255-.033-3.377h1.046c-.032,1.1-.032,2.233-.032,3.377v.414c0,1.253,0,2.386,.032,3.508h-1.046c.033-1.101,.033-2.233,.033-3.377v-.545Zm3.508-3.377l.49,.544h-3.508v-.544h3.89l.076,1.938h-.61l-.338-1.938Zm-.556,3.823h-2.462v-.501h2.462v.501Zm1.722,1.536l-.076,1.939h-4.107v-.545h3.726l-.49,.545,.338-1.939h.61Zm-2.07-1.928l.164-1.155h.49v2.582h-.49l-.164-1.209v-.218Z"/>
        <path class="cls-1" d="M189.177,76v.599l-.676,.153,.272-1.613h.664l-.043,1.58c-.687,.37-1.438,.523-2.201,.523-2.2,0-3.682-1.591-3.682-3.813,0-2.179,1.547-3.813,3.671-3.813,.589,0,1.362,.099,2.103,.523l.044,1.579h-.665l-.271-1.612,.675,.152v.665c-.621-.577-1.23-.763-1.754-.763-1.471,0-2.658,1.144-2.658,3.269s1.067,3.269,2.582,3.269c.621,0,1.318-.186,1.939-.697Z"/>
        <path class="cls-1" d="M190.361,70.215v-.436h3.051v.436l-1.417,.163h-.218l-1.416-.163Zm1.634,6.265l1.417,.163v.436h-3.051v-.436l1.416-.163h.218Zm-.599-3.323c0-1.122,0-2.255-.033-3.377h1.046c-.032,1.1-.032,2.233-.032,3.377v.327c0,1.34,0,2.473,.032,3.595h-1.046c.033-1.101,.033-2.233,.033-3.377v-.545Zm.49,.436v-.501h4.576v.501h-4.576Zm3.051-3.377v-.436h3.05v.436l-1.416,.163h-.218l-1.416-.163Zm1.634,6.265l1.416,.163v.436h-3.05v-.436l1.416-.163h.218Zm-.599-3.323c0-1.122,0-2.255-.033-3.377h1.046c-.032,1.1-.032,2.233-.032,3.377v.545c0,1.122,0,2.255,.032,3.377h-1.046c.033-1.101,.033-2.233,.033-3.595v-.327Z"/>
        <path class="cls-1" d="M198.91,76.642l1.145-.163h.218l1.253,.163v.436h-2.615v-.436Zm.687-6.526l.676,.262-1.308-.163v-.436h1.634l4.521,6.221v1.154h-.349l-5.175-7.038Zm.24-.337l.544,.436v6.863h-.544v-7.299Zm3.595,0h2.615v.436l-1.09,.163h-.218l-1.308-.163v-.436Zm1.145,0h.544v7.375l-.544-.544v-6.831Z"/>
        <path class="cls-1" d="M213.441,73.428c0,2.386-1.634,3.813-3.323,3.813s-3.333-1.329-3.333-3.813c0-2.386,1.655-3.813,3.333-3.813s3.323,1.329,3.323,3.813Zm-3.323,3.269c1.536,0,2.18-1.635,2.18-3.269s-.644-3.269-2.18-3.269-2.189,1.634-2.189,3.269,.653,3.269,2.189,3.269Z"/>
        <path class="cls-1" d="M214.179,70.215v-.436h3.051v.436l-1.417,.163h-.218l-1.416-.163Zm1.525,6.265v.599h-1.525v-.436l1.416-.163h.109Zm-.523-6.7h1.046c-.032,1.122-.032,2.255-.032,3.377v.763c0,.926,0,2.059,.032,3.159h-1.046c.033-1.122,.033-2.255,.033-3.377v-.545c0-1.144,0-2.277-.033-3.377Zm4.521,5.251l-.108,2.048h-3.89v-.545h3.508l-.599,.545,.436-2.048h.653Z"/>
        <path class="cls-1" d="M227.153,73.428c0,2.386-1.634,3.813-3.323,3.813s-3.334-1.329-3.334-3.813c0-2.386,1.656-3.813,3.334-3.813s3.323,1.329,3.323,3.813Zm-3.323,3.269c1.536,0,2.18-1.635,2.18-3.269s-.644-3.269-2.18-3.269-2.189,1.634-2.189,3.269,.653,3.269,2.189,3.269Z"/>
        <path class="cls-1" d="M234.362,76.598c-.751,.393-1.492,.644-2.396,.644-2.179,0-3.661-1.624-3.661-3.813s1.493-3.813,3.705-3.813c.904,0,1.579,.164,2.189,.523l.044,1.579h-.665l-.272-1.612,.676,.218v.621c-.589-.545-1.188-.784-1.885-.784-1.525,0-2.647,1.188-2.647,3.269,0,2.07,1.024,3.258,2.724,3.258,.621,0,1.078-.142,1.699-.447l-.49,.513v-.633c0-.827-.011-1.678-.032-2.505h1.046c-.021,.816-.033,1.655-.033,2.505v.479Zm-2.146-2.549v-.436h2.832v.436l-1.198,.108h-.218l-1.416-.108Z"/>
        <path class="cls-1" d="M234.828,70.215v-.436h3.051v.436l-1.416,.163h-.218l-1.417-.163Zm2.996,4.412l-2.386-4.848h1.133l1.983,4.292h-.382l2.038-4.292h.555l-2.342,4.848h-.6Zm.414,1.853l1.525,.163v.436h-3.269v-.436l1.525-.163h.218Zm-.599-2.67h.98c0,1.242,0,2.299,.032,3.269h-1.046c.033-.947,.033-2.016,.033-3.269Zm2.517-3.432l-1.21-.163v-.436h2.506v.436l-1.089,.163h-.207Z"/>
        <path class="cls-1" d="M248.018,75.368c0-.708-.425-1.024-1.373-1.395l-.414-.164c-1.111-.436-1.874-1.067-1.874-2.179,0-1.253,1.057-2.016,2.44-2.016,.73,0,1.308,.229,1.776,.577l-.065,1.417h-.654l-.305-1.646,.697,.359v.545c-.534-.522-.937-.708-1.515-.708-.85,0-1.492,.425-1.492,1.242,0,.687,.446,1.089,1.242,1.395l.425,.163c1.438,.556,1.993,1.188,1.993,2.212,0,1.285-1.078,2.07-2.57,2.07-.817,0-1.613-.262-2.114-.578l.065-1.525h.654l.283,1.678-.709-.305v-.522c.676,.49,1.046,.708,1.787,.708,1.035,0,1.722-.479,1.722-1.329Z"/>
        <path class="cls-1" d="M249.443,70.215v-.436h3.051v.436l-1.416,.163h-.218l-1.417-.163Zm3.727,6.265c1.253,0,1.885-.709,1.885-2.658v-4.042h.545v4.325c0,2.287-1.111,3.138-2.582,3.138-1.58,0-2.647-.883-2.647-2.909v-1.177c0-1.122,0-2.255-.033-3.377h1.046c-.032,1.1-.032,2.233-.032,3.377v.86c0,1.874,.708,2.463,1.819,2.463Zm1.961-6.102l-1.198-.163v-.436h2.614v.436l-1.198,.163h-.218Z"/>
        <path class="cls-1" d="M257.198,70.215v-.436h1.525v.599h-.109l-1.416-.163Zm1.634,6.265l1.417,.163v.436h-3.051v-.436l1.416-.163h.218Zm-.599-3.323c0-1.122,0-2.255-.033-3.377h1.046c-.032,1.1-.032,2.233-.032,3.377v.665c0,1.11,0,2.135,.032,3.257h-1.046c.033-1.101,.033-2.233,.033-3.377v-.545Zm1.568,1.035h-1.078v-.501h1.242c1.34,0,1.862-.709,1.862-1.743,0-1.058-.588-1.667-1.906-1.667h-1.198v-.501h1.405c1.809,0,2.734,.893,2.734,2.168,0,1.22-.839,2.244-3.062,2.244Z"/>
        <path class="cls-1" d="M263.493,70.215v-.436h1.525v.599h-.109l-1.416-.163Zm1.634,6.265l1.417,.163v.436h-3.051v-.436l1.416-.163h.218Zm-.599-3.323c0-1.122,0-2.255-.033-3.377h1.046c-.032,1.1-.032,2.233-.032,3.377v.665c0,1.11,0,2.135,.032,3.257h-1.046c.033-1.101,.033-2.233,.033-3.377v-.545Zm1.568,1.035h-1.078v-.501h1.242c1.34,0,1.862-.709,1.862-1.743,0-1.058-.588-1.667-1.906-1.667h-1.198v-.501h1.405c1.809,0,2.734,.893,2.734,2.168,0,1.22-.839,2.244-3.062,2.244Z"/>
        <path class="cls-1" d="M276.586,73.428c0,2.386-1.634,3.813-3.323,3.813s-3.333-1.329-3.333-3.813c0-2.386,1.655-3.813,3.333-3.813s3.323,1.329,3.323,3.813Zm-3.323,3.269c1.536,0,2.18-1.635,2.18-3.269s-.644-3.269-2.18-3.269-2.189,1.634-2.189,3.269,.653,3.269,2.189,3.269Z"/>
        <path class="cls-1" d="M277.324,70.215v-.436h1.525v.599h-.109l-1.416-.163Zm1.634,6.265l1.417,.163v.436h-3.051v-.436l1.416-.163h.218Zm-.599-3.323c0-1.122,0-2.255-.033-3.377h1.046c-.032,1.133-.032,2.2-.032,3.486v.326c0,1.231,0,2.364,.032,3.486h-1.046c.033-1.101,.033-2.233,.033-3.377v-.545Zm.49,.055h1.361c1.177,0,1.743-.632,1.743-1.515,0-.915-.49-1.416-1.623-1.416h-1.481v-.501h1.492c1.667,0,2.647,.708,2.647,1.917,0,.926-.729,1.765-2.157,1.885l.033-.087c.784,.076,1.264,.436,1.558,1.416l.534,1.809-.338-.207,1.122,.131v.436c-.196,.065-.458,.109-.784,.109-.676,0-.97-.175-1.101-.676l-.446-1.775c-.219-.883-.621-1.035-1.525-1.035h-1.035v-.49Z"/>
        <path class="cls-1" d="M284.262,70.323l.49-.544-.349,1.938h-.61l.087-1.938h5.949l.087,1.938h-.61l-.349-1.938,.49,.544h-5.186Zm2.702,6.156l1.524,.163v.436h-3.268v-.436l1.524-.163h.219Zm-.6-3.323c0-1.122,0-2.255-.032-3.377h1.046c-.033,1.1-.033,2.233-.033,3.377v.545c0,1.122,0,2.255,.033,3.377h-1.046c.032-1.101,.032-2.233,.032-3.377v-.545Z"/>
      </g>
      <g>
        <path class="cls-1" d="M169.639,30.153v-.832h2.912v1.145h-.208l-2.704-.312Zm3.12,11.959l2.703,.312v.832h-5.823v-.832l2.704-.312h.416Zm-1.144-6.344c0-2.142,0-4.305-.062-6.447h1.996c-.062,2.101-.062,4.264-.062,6.447v1.269c0,2.122,0,4.077,.062,6.219h-1.996c.062-2.101,.062-4.264,.062-6.447v-1.04Zm2.994,1.977h-2.059v-.957h2.371c2.558,0,3.557-1.352,3.557-3.328,0-2.017-1.124-3.182-3.64-3.182h-2.288v-.957h2.683c3.453,0,5.221,1.706,5.221,4.139,0,2.33-1.602,4.285-5.845,4.285Z"/>
        <path class="cls-1" d="M181.657,30.153v-.832h2.912v1.145h-.208l-2.704-.312Zm3.12,11.959l2.703,.312v.832h-5.823v-.832l2.704-.312h.416Zm-1.144-6.344c0-2.142,0-4.305-.062-6.447h1.996c-.062,2.163-.062,4.201-.062,6.655v.624c0,2.351,0,4.514,.062,6.655h-1.996c.062-2.101,.062-4.264,.062-6.447v-1.04Zm.936,.104h2.6c2.246,0,3.328-1.206,3.328-2.891,0-1.747-.937-2.704-3.1-2.704h-2.828v-.957h2.85c3.182,0,5.054,1.353,5.054,3.661,0,1.768-1.394,3.369-4.118,3.598l.062-.166c1.497,.146,2.412,.831,2.974,2.703l1.02,3.452-.645-.395,2.142,.249v.832c-.374,.125-.873,.208-1.497,.208-1.29,0-1.852-.333-2.101-1.289l-.853-3.391c-.416-1.685-1.186-1.976-2.912-1.976h-1.976v-.936Z"/>
        <path class="cls-1" d="M207.506,36.289c0,4.555-3.12,7.279-6.344,7.279s-6.364-2.538-6.364-7.279c0-4.555,3.161-7.279,6.364-7.279s6.344,2.537,6.344,7.279Zm-6.344,6.239c2.933,0,4.159-3.12,4.159-6.239s-1.227-6.239-4.159-6.239-4.181,3.119-4.181,6.239,1.248,6.239,4.181,6.239Z"/>
        <path class="cls-1" d="M210.682,30.466l-2.704-.312v-.832h5.616v.937l-2.496,.208h-.416Zm-1.477-1.145h1.996l4.16,11.813h-.437l3.993-11.813h1.123l-4.763,14.08h-.832l-5.241-14.08Zm9.567,1.145l-2.08-.208v-.937h4.804v.832l-2.309,.312h-.415Z"/>
        <path class="cls-1" d="M234.368,36.289c0,4.555-3.12,7.279-6.344,7.279s-6.364-2.538-6.364-7.279c0-4.555,3.161-7.279,6.364-7.279s6.344,2.537,6.344,7.279Zm-6.344,6.239c2.933,0,4.159-3.12,4.159-6.239s-1.227-6.239-4.159-6.239-4.181,3.119-4.181,6.239,1.248,6.239,4.181,6.239Z"/>
        <path class="cls-1" d="M252.04,41.197v1.144l-1.29,.291,.521-3.078h1.269l-.083,3.016c-1.311,.708-2.746,.999-4.201,.999-4.201,0-7.03-3.037-7.03-7.279,0-4.16,2.953-7.279,7.009-7.279,1.123,0,2.6,.188,4.015,.998l.083,3.016h-1.269l-.521-3.078,1.29,.291v1.27c-1.186-1.103-2.351-1.456-3.349-1.456-2.808,0-5.075,2.184-5.075,6.239s2.039,6.239,4.93,6.239c1.186,0,2.517-.354,3.702-1.331Z"/>
        <path class="cls-1" d="M254.302,30.153v-.832h5.823v.832l-2.703,.312h-.416l-2.704-.312Zm3.12,11.959l2.703,.312v.832h-5.823v-.832l2.704-.312h.416Zm-1.144-6.344c0-2.142,0-4.305-.062-6.447h1.996c-.062,2.101-.062,4.264-.062,6.447v1.04c0,2.143,0,4.306,.062,6.447h-1.996c.062-2.101,.062-4.264,.062-6.447v-1.04Z"/>
        <path class="cls-1" d="M262.369,30.361l.936-1.04-.665,3.702h-1.165l.166-3.702h11.355l.167,3.702h-1.165l-.665-3.702,.936,1.04h-9.899Zm5.157,11.751l2.912,.312v.832h-6.239v-.832l2.911-.312h.416Zm-1.144-6.344c0-2.142,0-4.305-.062-6.447h1.997c-.062,2.101-.062,4.264-.062,6.447v1.04c0,2.143,0,4.306,.062,6.447h-1.997c.062-2.101,.062-4.264,.062-6.447v-1.04Z"/>
        <path class="cls-1" d="M273.887,30.153v-.832h5.824v.832l-2.704,.312h-.416l-2.704-.312Zm5.72,8.423l-4.555-9.255h2.163l3.785,8.194h-.728l3.889-8.194h1.061l-4.472,9.255h-1.144Zm.79,3.536l2.912,.312v.832h-6.239v-.832l2.911-.312h.416Zm-1.144-5.096h1.872c0,2.371,0,4.389,.062,6.239h-1.997c.062-1.81,.062-3.848,.062-6.239Zm4.805-6.551l-2.309-.312v-.832h4.783v.832l-2.08,.312h-.395Z"/>
      </g>
      <line class="cls-2" x1="156.605" y1="7.046" x2="156.605" y2="104.119"/>
      <g>
        <path class="cls-1" d="M174.816,59.048c0-.965-.579-1.396-1.871-1.9l-.563-.223c-1.515-.594-2.554-1.455-2.554-2.969,0-1.708,1.439-2.747,3.325-2.747,.995,0,1.782,.312,2.42,.787l-.089,1.93h-.891l-.416-2.241,.95,.489v.742c-.728-.712-1.276-.965-2.063-.965-1.158,0-2.034,.579-2.034,1.692,0,.936,.609,1.485,1.692,1.9l.579,.223c1.96,.758,2.717,1.619,2.717,3.015,0,1.752-1.47,2.82-3.503,2.82-1.114,0-2.198-.356-2.881-.786l.089-2.079h.892l.386,2.286-.965-.415v-.713c.92,.668,1.425,.965,2.435,.965,1.41,0,2.346-.653,2.346-1.812Z"/>
        <path class="cls-1" d="M185.048,59.909v.816l-.92,.208,.371-2.197h.905l-.06,2.153c-.935,.504-1.959,.712-2.999,.712-2.999,0-5.018-2.167-5.018-5.196,0-2.969,2.108-5.196,5.003-5.196,.802,0,1.856,.134,2.865,.713l.06,2.152h-.905l-.371-2.197,.92,.208v.905c-.846-.786-1.678-1.039-2.39-1.039-2.005,0-3.623,1.56-3.623,4.454s1.455,4.454,3.519,4.454c.847,0,1.797-.252,2.643-.95Z"/>
        <path class="cls-1" d="M186.669,52.025v-.594h4.157v.594l-1.93,.223h-.297l-1.931-.223Zm2.228,8.537l1.93,.223v.594h-4.157v-.594l1.931-.223h.297Zm-.817-4.528c0-1.529,0-3.073-.044-4.603h1.425c-.044,1.5-.044,3.044-.044,4.603v.445c0,1.826,0,3.37,.044,4.899h-1.425c.044-1.499,.044-3.043,.044-4.603v-.742Zm.669,.594v-.683h6.235v.683h-6.235Zm4.156-4.603v-.594h4.157v.594l-1.93,.223h-.297l-1.931-.223Zm2.228,8.537l1.93,.223v.594h-4.157v-.594l1.931-.223h.297Zm-.816-4.528c0-1.529,0-3.073-.045-4.603h1.426c-.045,1.5-.045,3.044-.045,4.603v.742c0,1.529,0,3.073,.045,4.603h-1.426c.045-1.499,.045-3.043,.045-4.899v-.445Z"/>
        <path class="cls-1" d="M207.145,56.405c0,3.252-2.228,5.196-4.528,5.196s-4.543-1.811-4.543-5.196c0-3.251,2.257-5.196,4.543-5.196s4.528,1.812,4.528,5.196Zm-4.528,4.454c2.094,0,2.97-2.227,2.97-4.454s-.876-4.454-2.97-4.454-2.984,2.228-2.984,4.454,.891,4.454,2.984,4.454Z"/>
        <path class="cls-1" d="M217.794,56.405c0,3.252-2.228,5.196-4.528,5.196s-4.543-1.811-4.543-5.196c0-3.251,2.257-5.196,4.543-5.196s4.528,1.812,4.528,5.196Zm-4.528,4.454c2.094,0,2.97-2.227,2.97-4.454s-.876-4.454-2.97-4.454-2.984,2.228-2.984,4.454,.891,4.454,2.984,4.454Z"/>
        <path class="cls-1" d="M218.805,52.025v-.594h4.157v.594l-1.93,.223h-.297l-1.931-.223Zm2.079,8.537v.816h-2.079v-.594l1.931-.223h.148Zm-.713-9.131h1.425c-.044,1.529-.044,3.073-.044,4.603v1.039c0,1.263,0,2.807,.044,4.306h-1.425c.044-1.529,.044-3.073,.044-4.603v-.742c0-1.559,0-3.103-.044-4.603Zm6.161,7.156l-.148,2.791h-5.3v-.742h4.78l-.816,.742,.594-2.791h.891Z"/>
        <path class="cls-1" d="M231.146,52.025v-.594h2.079v.816h-.148l-1.931-.223Zm2.079,8.537v.816h-2.079v-.594l1.931-.223h.148Zm-.669-4.528c0-1.529,0-3.073-.044-4.603h1.425c-.044,1.5-.044,3.044-.044,4.603v.564c0,1.707,0,3.251,.044,4.78h-1.425c.044-1.499,.044-3.043,.044-4.78v-.564Zm.669,4.662h1.915c2.331,0,3.607-1.574,3.607-4.276,0-2.806-1.276-4.306-3.474-4.306h-2.049v-.683h2.301c2.821,0,4.78,1.752,4.78,4.988,0,3.207-2.197,4.959-5.077,4.959h-2.004v-.683Z"/>
        <path class="cls-1" d="M241.245,52.025v-.594h4.157v.594l-1.93,.223h-.297l-1.931-.223Zm2.228,8.537l1.93,.223v.594h-4.157v-.594l1.931-.223h.297Zm-.817-4.528c0-1.529,0-3.073-.044-4.603h1.425c-.044,1.5-.044,3.044-.044,4.603v.742c0,1.529,0,3.073,.044,4.603h-1.425c.044-1.499,.044-3.043,.044-4.603v-.742Z"/>
        <path class="cls-1" d="M251.847,59.048c0-.965-.579-1.396-1.871-1.9l-.563-.223c-1.515-.594-2.554-1.455-2.554-2.969,0-1.708,1.439-2.747,3.325-2.747,.995,0,1.782,.312,2.42,.787l-.089,1.93h-.891l-.416-2.241,.95,.489v.742c-.728-.712-1.276-.965-2.063-.965-1.158,0-2.034,.579-2.034,1.692,0,.936,.609,1.485,1.692,1.9l.579,.223c1.96,.758,2.717,1.619,2.717,3.015,0,1.752-1.47,2.82-3.503,2.82-1.114,0-2.198-.356-2.881-.786l.089-2.079h.892l.386,2.286-.965-.415v-.713c.92,.668,1.425,.965,2.435,.965,1.41,0,2.346-.653,2.346-1.812Z"/>
        <path class="cls-1" d="M254.433,52.174l.668-.742-.476,2.643h-.831l.119-2.643h8.106l.118,2.643h-.831l-.476-2.643,.668,.742h-7.066Zm3.682,8.389l2.079,.223v.594h-4.454v-.594l2.078-.223h.297Zm-.816-4.528c0-1.529,0-3.073-.045-4.603h1.426c-.045,1.5-.045,3.044-.045,4.603v.742c0,1.529,0,3.073,.045,4.603h-1.426c.045-1.499,.045-3.043,.045-4.603v-.742Z"/>
        <path class="cls-1" d="M263.105,52.025v-.594h2.079v.816h-.148l-1.931-.223Zm2.228,8.537l1.93,.223v.594h-4.157v-.594l1.931-.223h.297Zm-.817-4.528c0-1.529,0-3.073-.044-4.603h1.425c-.044,1.544-.044,2.999-.044,4.751v.445c0,1.678,0,3.222,.044,4.751h-1.425c.044-1.499,.044-3.043,.044-4.603v-.742Zm.669,.074h1.855c1.604,0,2.375-.861,2.375-2.063,0-1.247-.668-1.931-2.212-1.931h-2.019v-.683h2.033c2.271,0,3.608,.965,3.608,2.613,0,1.262-.995,2.405-2.939,2.568l.044-.119c1.069,.104,1.723,.595,2.123,1.931l.728,2.465-.46-.282,1.529,.178v.594c-.268,.089-.624,.148-1.069,.148-.92,0-1.321-.237-1.499-.92l-.609-2.42c-.297-1.203-.846-1.411-2.078-1.411h-1.41v-.668Z"/>
        <path class="cls-1" d="M272.744,52.025v-.594h4.157v.594l-1.93,.223h-.297l-1.931-.223Zm2.228,8.537l1.93,.223v.594h-4.157v-.594l1.931-.223h.297Zm-.817-4.528c0-1.529,0-3.073-.044-4.603h1.425c-.044,1.5-.044,3.044-.044,4.603v.742c0,1.529,0,3.073,.044,4.603h-1.425c.044-1.499,.044-3.043,.044-4.603v-.742Z"/>
        <path class="cls-1" d="M285.633,59.909v.816l-.92,.208,.371-2.197h.905l-.06,2.153c-.935,.504-1.959,.712-2.999,.712-2.999,0-5.018-2.167-5.018-5.196,0-2.969,2.108-5.196,5.003-5.196,.802,0,1.856,.134,2.865,.713l.06,2.152h-.905l-.371-2.197,.92,.208v.905c-.846-.786-1.678-1.039-2.39-1.039-2.005,0-3.623,1.56-3.623,4.454s1.455,4.454,3.519,4.454c.847,0,1.797-.252,2.643-.95Z"/>
        <path class="cls-1" d="M287.521,52.174l.668-.742-.476,2.643h-.831l.119-2.643h8.106l.118,2.643h-.831l-.476-2.643,.668,.742h-7.066Zm3.682,8.389l2.079,.223v.594h-4.454v-.594l2.078-.223h.297Zm-.816-4.528c0-1.529,0-3.073-.045-4.603h1.426c-.045,1.5-.045,3.044-.045,4.603v.742c0,1.529,0,3.073,.045,4.603h-1.426c.045-1.499,.045-3.043,.045-4.603v-.742Z"/>
      </g>
    </g>
  </g>
</svg>